<?xml version="1.0" encoding="UTF-8" standalone="no"?>
<svg
   xmlns:dc="http://purl.org/dc/elements/1.1/"
   xmlns:cc="http://creativecommons.org/ns#"
   xmlns:rdf="http://www.w3.org/1999/02/22-rdf-syntax-ns#"
   xmlns:svg="http://www.w3.org/2000/svg"
   xmlns="http://www.w3.org/2000/svg"
   xmlns:sodipodi="http://sodipodi.sourceforge.net/DTD/sodipodi-0.dtd"
   xmlns:inkscape="http://www.inkscape.org/namespaces/inkscape"
   version="1.1"
   id="Layer_2"
   x="0px"
   y="0px"
   width="600px"
   height="600px"
   viewBox="0 0 600 600"
   enable-background="new 0 0 600 600"
   xml:space="preserve"
   inkscape:version="0.48.5 r10040"
   sodipodi:docname="download.svg"
   inkscape:export-filename="/Users/charlesking/Desktop/download.png"
   inkscape:export-xdpi="180"
   inkscape:export-ydpi="180"><metadata
     id="metadata3406"><rdf:RDF><cc:Work
         rdf:about=""><dc:format>image/svg+xml</dc:format><dc:type
           rdf:resource="http://purl.org/dc/dcmitype/StillImage" /><dc:title></dc:title></cc:Work></rdf:RDF></metadata><defs
     id="defs3404">
         <filter
       inkscape:collect="always"
       x="-.10899"
       y="-.21216"
       color-interpolation-filters="sRGB"
       width="1.218"
       height="1.4243"
       id="filter2893"><feGaussianBlur
         inkscape:collect="always"
         stdDeviation="0.72146876"
         id="feGaussianBlur2895" /></filter></defs>
         <sodipodi:namedview
     pagecolor="#ffffff"
     bordercolor="#666666"
     borderopacity="1"
     objecttolerance="10"
     gridtolerance="10"
     guidetolerance="10"
     inkscape:pageopacity="0"
     inkscape:pageshadow="2"
     inkscape:window-width="1440"
     inkscape:window-height="770"
     id="namedview3402"
     showgrid="false"
     inkscape:zoom="0.69916665"
     inkscape:cx="499.42084"
     inkscape:cy="188.31326"
     inkscape:window-x="0"
     inkscape:window-y="0"
     inkscape:window-maximized="1"
     inkscape:current-layer="layer1" /><rect
     width="600"
     height="736.59125"
     id="rect3392"
     x="0"
     y="0"
     style="fill:transparent" />
     <path
     fill="transparent"
     stroke="#00D8FF"
     stroke-width="24"
     stroke-miterlimit="10"
     d="M299.529,197.628  c67.356,0,129.928,9.665,177.107,25.907c56.844,19.569,91.794,49.233,91.794,76.093c0,27.991-37.041,59.503-98.083,79.728  c-46.151,15.291-106.879,23.272-170.818,23.272c-65.554,0-127.63-7.492-174.29-23.441c-59.046-20.182-94.611-52.103-94.611-79.559  c0-26.642,33.37-56.076,89.415-75.616C167.398,207.503,231.515,197.628,299.529,197.628z"
     id="path3396" /><path
     fill="transparent"
     stroke="#00D8FF"
     stroke-width="24"
     stroke-miterlimit="10"
     d="M210.736,248.922  c33.649-58.348,73.281-107.724,110.92-140.48c45.35-39.466,88.507-54.923,111.775-41.505  c24.248,13.983,33.042,61.814,20.067,124.796c-9.81,47.618-33.234,104.212-65.176,159.601  c-32.749,56.788-70.25,106.819-107.377,139.272c-46.981,41.068-92.4,55.929-116.185,42.213  c-23.079-13.31-31.906-56.921-20.834-115.233C153.281,368.316,176.758,307.841,210.736,248.922z"
     id="path3398" /><path
     fill="transparent"
     stroke="#00D8FF"
     stroke-width="24"
     stroke-miterlimit="10"
     d="M210.821,351.482  c-33.746-58.292-56.731-117.287-66.312-166.255c-11.544-58.999-3.382-104.109,19.864-117.566  c24.224-14.024,70.055,2.244,118.14,44.94c36.356,32.28,73.688,80.837,105.723,136.173c32.844,56.733,57.461,114.209,67.036,162.582  c12.117,61.213,2.309,107.984-21.453,121.74c-23.057,13.348-65.249-0.784-110.239-39.499  C285.567,460.886,244.898,410.344,210.821,351.482z"
     id="path3400" /><g
     transform="translate(515.02052,-180.91213)"
     inkscape:label="Layer 1"
     id="layer1">
       <path
       d="m -226.00189,421.91654 0.99647,61.03164 c -3.73665,1.54625 -7.47328,2.49075 -11.20993,0.74732 -1.68445,-3.76053 -3.21051,-8.47116 -4.23484,-16.19191 -2.73249,-4.33924 -8.84113,-2.65499 -7.72261,1.74379 0.58848,30.39363 2.91433,24.18722 4.73311,26.90383 13.30109,2.75195 11.66116,0.025 18.43389,0.99645 l -1.99285,49.82172 h 29.39514 l -3.23845,-75.73014 c 3.0409,1.46573 8.25325,2.42783 11.95726,-0.74732 3.23494,-4.35396 2.57059,-12.92312 2.49112,-19.92856 -0.63862,-7.04115 -9.29667,-4.94184 -8.96795,-1.49466 -0.15465,3.00077 1.35948,8.66692 -0.74733,9.71528 -1.95844,2.27023 -4.60924,-2.40543 -5.97862,-2.49113 l -2.24199,-34.62642 c -2.92055,-13.15151 -22.18471,-10.91076 -21.67253,0.2491 z"
       inkscape:connector-curvature="0"
       style="fill:#00d8ff;fill-opacity:1;stroke:#00d8ff;stroke-width:1.92372513;stroke-opacity:1"
       sodipodi:nodetypes="ccccccccccccccccc"
       id="path2816" /></g></svg>